<?xml version="1.0" standalone="no"?>
<!DOCTYPE svg PUBLIC "-//W3C//DTD SVG 20010904//EN"
 "http://www.w3.org/TR/2001/REC-SVG-20010904/DTD/svg10.dtd">
<svg version="1.0" xmlns="http://www.w3.org/2000/svg"
 width="316.000000pt" height="316.000000pt" viewBox="0 0 316.000000 316.000000"
 preserveAspectRatio="xMidYMid meet">
<metadata>
Created by potrace 1.11, written by Peter Selinger 2001-2013
</metadata>
<g transform="translate(0.000000,316.000000) scale(0.100000,-0.100000)"
fill="#000000" stroke="none">
<path d="M1429 3088 c0 -35 -3 -57 -6 -50 -2 6 -19 12 -37 12 -22 0 -40 8 -56
25 -24 26 -50 33 -50 14 0 -5 -10 -3 -22 5 -47 33 -107 12 -126 -44 -9 -25 -7
-37 14 -75 23 -43 24 -55 24 -210 l0 -163 -177 -4 c-174 -3 -179 -4 -226 -31
-26 -15 -60 -47 -75 -69 l-27 -41 -3 -220 c-3 -218 -3 -220 23 -272 55 -114
114 -155 227 -160 40 -2 75 -4 77 -5 3 0 -9 -11 -27 -23 -63 -47 -91 -98 -94
-172 -1 -43 -1 -44 -57 -64 -190 -70 -323 -264 -366 -534 -5 -32 -10 -38 -28
-37 -61 5 -67 2 -67 -37 0 -77 96 -173 173 -173 45 0 92 25 122 65 28 36 38
90 18 103 -5 4 -12 15 -16 24 -3 10 -18 20 -32 24 -29 7 -30 11 -11 82 24 87
72 179 125 235 55 59 130 107 132 85 1 -7 2 -115 3 -239 l3 -226 33 -59 c50
-90 123 -144 194 -144 14 0 16 -20 16 -175 0 -151 -2 -175 -15 -175 -26 0 -89
-36 -124 -72 -40 -40 -69 -100 -77 -162 -6 -38 -4 -46 9 -46 9 0 19 -9 22 -20
3 -11 9 -21 13 -22 4 0 115 -2 247 -3 157 -1 246 2 258 9 60 37 -39 229 -149
287 -24 13 -44 31 -45 39 -5 92 3 316 12 326 8 10 67 12 245 12 l234 -1 0 -72
0 -72 -39 -11 c-82 -25 -159 -121 -176 -219 -6 -38 -4 -46 22 -73 l28 -30 246
0 c208 0 249 2 259 15 17 20 7 91 -20 143 -24 46 -125 146 -158 156 -12 4 -22
13 -23 19 -6 72 -2 120 11 132 8 7 36 13 62 14 58 0 130 33 165 75 52 61 54
77 55 369 0 150 5 280 10 290 5 9 16 17 26 17 34 0 179 57 224 88 134 92 228
244 262 422 16 82 21 90 52 90 13 0 33 9 44 20 17 17 18 24 8 52 -16 47 -73
113 -112 132 -71 34 -144 9 -193 -63 -27 -39 -31 -91 -8 -91 8 0 15 -7 15 -16
0 -9 13 -21 30 -27 34 -13 36 -23 14 -98 -43 -145 -138 -264 -256 -319 -102
-47 -114 -48 -134 -8 -27 53 -66 99 -108 130 -21 15 -33 28 -25 28 8 1 55 2
104 4 68 2 100 8 132 24 50 26 100 84 113 132 6 19 10 123 10 230 0 220 -6
242 -76 320 -67 74 -96 83 -283 90 l-165 5 -1 130 c0 124 8 185 25 185 14 0
32 59 26 85 -9 35 -79 105 -105 105 -38 0 -80 -28 -87 -58 -11 -49 -18 -59
-22 -29 -4 31 -36 38 -47 10 -7 -20 -5 -21 -45 37 -8 12 -20 29 -26 38 -20 28
-44 7 -45 -40 l-1 -43 -11 31 c-7 17 -20 39 -29 48 -10 10 -18 24 -18 32 0 8
-9 14 -20 14 -18 0 -20 -7 -21 -62z m-9 -173 c10 -22 27 -48 38 -59 20 -18 23
-18 63 -2 23 10 53 26 67 37 14 10 32 19 41 19 10 0 36 14 58 30 40 30 42 30
52 11 7 -12 11 -88 11 -185 l0 -166 -239 0 -239 0 1 148 c2 146 3 147 32 188
29 39 31 40 64 30 25 -8 38 -20 51 -51z"/>
</g>
</svg>
